<svg width="511.613" height="511.613" xmlns="http://www.w3.org/2000/svg">
 <g>
  <title>background</title>
  <rect x="-1" y="-1" width="513.613" height="513.613" id="canvas_background" fill="none"/>
 </g>

 <g>
  <title>Layer 1</title>
  <ellipse ry="247" rx="247" id="svg_19" cy="252.259628" cx="253" fill-opacity="null" stroke-opacity="null" stroke-width="null" stroke="null" fill="#acc81c"/>
  <g stroke="null" id="svg_1">
   <path stroke="null" d="m344.385042,282.936539c-1.728939,-5.854322 -3.826615,-10.949479 -6.29023,-15.276374c-2.462216,-4.331093 -5.988663,-8.555833 -10.586339,-12.688213c-4.592078,-4.130281 -8.723059,-7.456617 -12.385946,-9.985303c-3.660788,-2.530786 -8.689474,-5.36034 -15.083259,-8.492161c-6.388187,-3.131121 -11.449758,-5.461095 -15.175618,-6.993421c-3.730757,-1.530226 -9.127481,-3.627903 -16.186673,-6.29163c-6.258744,-2.395745 -10.918692,-4.227539 -13.984742,-5.491882c-3.062552,-1.265743 -7.089978,-3.062552 -12.084379,-5.394625c-4.992302,-2.328575 -8.72166,-4.394065 -11.185975,-6.190874c-2.463615,-1.796809 -5.093057,-3.993841 -7.890426,-6.590398c-2.797368,-2.596557 -4.761403,-5.36034 -5.894205,-8.28995c-1.130002,-2.93031 -1.696753,-6.127202 -1.696753,-9.589977c0,-9.054013 3.993841,-16.447658 11.984323,-22.172537c7.991181,-5.724879 18.313736,-8.588718 30.966265,-8.588718c5.590538,0 11.290229,0.764763 17.07948,2.297788s10.750766,3.259865 14.879648,5.192414c4.13238,1.932549 8.026166,4.063811 11.689753,6.393085c3.662887,2.331373 6.258744,4.094597 7.791769,5.293169c1.531626,1.199272 2.502098,1.99762 2.897424,2.397844c1.733837,1.331514 3.527147,1.796809 5.391826,1.398684c1.996921,-0.132941 3.529946,-1.199972 4.597676,-3.195493l16.183874,-29.165958c1.597397,-2.662328 1.267142,-5.193113 -0.99846,-7.591657c-0.800448,-0.799048 -1.795409,-1.730338 -3.002378,-2.796669c-1.195074,-1.06633 -3.79303,-2.99678 -7.791769,-5.794848c-3.994541,-2.795969 -8.222779,-5.293169 -12.681216,-7.490902c-4.463335,-2.195633 -10.258183,-4.42765 -17.383846,-6.690454c-7.121464,-2.266302 -14.481524,-3.796528 -22.07458,-4.594877l0,-35.160218c0,-1.86328 -0.598237,-3.395605 -1.79331,-4.594877c-1.197873,-1.196473 -2.730198,-1.797509 -4.597676,-1.797509l-26.970325,0c-1.731038,0 -3.229078,0.631822 -4.494121,1.897564s-1.897564,2.763083 -1.897564,4.494821l0,35.957867c-20.909593,3.993841 -37.889717,12.917012 -50.94107,26.767414c-13.049954,13.851101 -19.57738,29.962907 -19.57738,48.343114c0,5.459696 0.56815,10.653509 1.700251,15.57864c1.130702,4.92933 2.530086,9.35768 4.195353,13.28575c1.663867,3.930869 4.028826,7.791769 7.091378,11.588297c3.062552,3.795129 5.959976,7.058492 8.689474,9.787291c2.730898,2.728099 6.293729,5.559052 10.687094,8.487963c4.396164,2.931709 8.158408,5.297367 11.288829,7.094176c3.131121,1.791211 7.292189,3.862299 12.484603,6.187376c5.193813,2.332073 9.290509,4.094597 12.28729,5.295968c2.99678,1.197173 7.091378,2.863839 12.28729,4.990203c7.190734,2.796669 12.518888,4.961515 15.980963,6.493841c3.464874,1.532325 7.85824,3.662887 13.188493,6.393085c5.325355,2.727399 9.219141,5.225299 11.684855,7.490202c2.463615,2.264903 4.693533,5.061571 6.692553,8.390006s3.000279,6.85768 3.000279,10.588438c0,10.521267 -4.095297,18.643291 -12.287989,24.365372c-8.189194,5.728378 -17.681215,8.591517 -28.466966,8.591517c-4.923032,0 -9.854461,-0.529667 -14.780292,-1.594598c-17.313177,-3.466973 -33.493552,-11.790508 -48.542526,-24.974104l-0.399524,-0.399524c-1.199272,-1.460957 -2.798068,-2.061292 -4.793589,-1.79331c-2.131262,0.265883 -3.663587,1.065631 -4.594877,2.399943l-20.57654,26.966126c-1.99832,2.663027 -1.86328,5.392526 0.400224,8.189194c0.666806,0.799748 1.831793,2.001119 3.495661,3.596416c1.668066,1.601595 4.764902,4.094597 9.290509,7.497199c4.527007,3.397704 9.454937,6.589698 14.783091,9.589977c5.327454,2.995381 12.085079,5.957177 20.277072,8.888186c8.191993,2.926112 16.679956,4.989503 25.470185,6.187376l0,34.958707c0,1.733837 0.633221,3.230478 1.897564,4.49692c1.265743,1.267142 2.763083,1.896865 4.494121,1.896865l26.970325,0c1.867478,0 3.399803,-0.598237 4.596976,-1.795409s1.79331,-2.729498 1.79331,-4.597676l0,-34.958707c21.178975,-3.462076 38.392095,-12.551773 51.641461,-27.268393c13.250765,-14.71662 19.878247,-32.262794 19.878247,-52.637123c-0.006997,-6.657569 -0.871116,-12.917012 -2.618947,-18.780431z" id="svg_2" fill="#ffffff"/>
  </g>
  <g id="svg_3"/>
  <g id="svg_4"/>
  <g id="svg_5"/>
  <g id="svg_6"/>
  <g id="svg_7"/>
  <g id="svg_8"/>
  <g id="svg_9"/>
  <g id="svg_10"/>
  <g id="svg_11"/>
  <g id="svg_12"/>
  <g id="svg_13"/>
  <g id="svg_14"/>
  <g id="svg_15"/>
  <g id="svg_16"/>
  <g id="svg_17"/>
 </g>
</svg>