<svg width="492.6" height="492.6" xmlns="http://www.w3.org/2000/svg">

 <g>
  <title>background</title>
  <rect fill="none" id="canvas_background" height="402" width="582" y="-1" x="-1"/>
 </g>
 <g>
  <title>Layer 1</title>
  <ellipse stroke="null" ry="240" rx="239" id="svg_22" cy="246.75314" cx="247.3" stroke-opacity="null" stroke-width="null" fill="#acc81c"/>
  <g stroke="null" id="svg_1">
   <g stroke="null" id="svg_2">
    <path stroke="null" id="svg_3" fill="#000000" d="m311.44646,326.456637c2.572566,0 5.069469,-1.361947 6.50708,-3.783186c2.04292,-3.556195 0.832301,-8.171681 -2.723894,-10.214602l-61.438938,-35.486283l0,-70.896903c0,-4.161504 -3.329204,-7.490708 -7.490708,-7.490708s-7.490708,3.329204 -7.490708,7.490708l0,70.896903l-61.438938,35.486283c-3.556195,2.04292 -4.842478,6.658407 -2.723894,10.214602c1.361947,2.421239 3.934513,3.783186 6.50708,3.783186c1.286283,0 2.572566,-0.302655 3.707522,-0.983628l61.438938,-35.486283l61.438938,35.486283c1.134956,0.680973 2.421239,0.983628 3.707522,0.983628z"/>
    <path stroke="null" id="svg_4" fill="#ffffff" d="m388.245132,328.802212l-19.672566,0c-7.717699,0 -14.073451,-6.280088 -14.073451,-14.073451c0,-7.717699 6.280088,-14.073451 14.073451,-14.073451l34.653982,0c4.161504,0 7.490708,-3.329204 7.490708,-7.490708s-3.329204,-7.490708 -7.490708,-7.490708l-17.326991,0l0,-13.089823c0,-4.161504 -3.329204,-7.490708 -7.490708,-7.490708s-7.490708,3.329204 -7.490708,7.490708l0,13.089823l-2.345575,0c-16.040708,0 -29.054867,13.014159 -29.054867,29.054867c0,16.040708 13.014159,29.054867 29.054867,29.054867l19.672566,0c7.717699,0 14.073451,6.280088 14.073451,14.073451s-6.280088,14.073451 -14.073451,14.073451l-35.334956,0c-4.161504,0 -7.490708,3.329204 -7.490708,7.490708s3.329204,7.490708 7.490708,7.490708l18.007965,0l0,13.316814c0,4.161504 3.329204,7.490708 7.490708,7.490708s7.490708,-3.329204 7.490708,-7.490708l0,-13.316814l2.345575,0c16.040708,0 29.054867,-13.014159 29.054867,-29.054867s-13.014159,-29.054867 -29.054867,-29.054867z"/>
    <path stroke="null" id="svg_5" fill="#ffffff" d="m114.19115,265.093363c-4.161504,0 -7.490708,3.329204 -7.490708,7.490708l0,13.089823l-2.345575,0c-16.040708,0 -29.054867,13.014159 -29.054867,29.054867c0,16.040708 13.014159,29.054867 29.054867,29.054867l19.672566,0c7.717699,0 14.073451,6.280088 14.073451,14.073451s-6.355752,14.073451 -14.073451,14.073451l-35.334956,0c-4.161504,0 -7.490708,3.329204 -7.490708,7.490708s3.329204,7.490708 7.490708,7.490708l18.007965,0l0,13.316814c0,4.161504 3.329204,7.490708 7.490708,7.490708s7.490708,-3.329204 7.490708,-7.490708l0,-13.316814l2.345575,0c16.040708,0 29.054867,-13.014159 29.054867,-29.054867c0,-16.040708 -13.014159,-29.054867 -29.054867,-29.054867l-19.672566,0c-7.717699,0 -14.073451,-6.280088 -14.073451,-14.073451c0,-7.717699 6.280088,-14.073451 14.073451,-14.073451l34.653982,0c4.161504,0 7.490708,-3.329204 7.490708,-7.490708s-3.329204,-7.490708 -7.490708,-7.490708l-17.326991,0l0,-13.089823c0,-4.085841 -3.329204,-7.490708 -7.490708,-7.490708z"/>
    <path stroke="null" id="svg_6" fill="#ffffff" d="m246.3,177.626106c4.161504,0 7.490708,-3.329204 7.490708,-7.490708l0,-13.316814l2.345575,0c16.040708,0 29.054867,-13.014159 29.054867,-29.054867s-13.014159,-29.054867 -29.054867,-29.054867l-19.672566,0c-7.717699,0 -14.073451,-6.280088 -14.073451,-14.073451c0,-7.717699 6.280088,-14.073451 14.073451,-14.073451l34.653982,0c4.161504,0 7.490708,-3.329204 7.490708,-7.490708s-3.329204,-7.490708 -7.490708,-7.490708l-17.326991,0l0,-13.089823c0,-4.161504 -3.329204,-7.490708 -7.490708,-7.490708s-7.490708,3.329204 -7.490708,7.490708l0,13.089823l-2.345575,0c-16.040708,0 -29.054867,13.014159 -29.054867,29.054867s13.014159,29.054867 29.054867,29.054867l19.672566,0c7.717699,0 14.073451,6.280088 14.073451,14.073451c0,7.717699 -6.280088,14.073451 -14.073451,14.073451l-35.334956,0c-4.161504,0 -7.490708,3.329204 -7.490708,7.490708s3.329204,7.490708 7.490708,7.490708l18.007965,0l0,13.316814c0,4.085841 3.329204,7.490708 7.490708,7.490708z"/>
   </g>
  </g>
  <g id="svg_7"/>
  <g id="svg_8"/>
  <g id="svg_9"/>
  <g id="svg_10"/>
  <g id="svg_11"/>
  <g id="svg_12"/>
  <g id="svg_13"/>
  <g id="svg_14"/>
  <g id="svg_15"/>
  <g id="svg_16"/>
  <g id="svg_17"/>
  <g id="svg_18"/>
  <g id="svg_19"/>
  <g id="svg_20"/>
  <g id="svg_21"/>
 </g>
</svg>